# xmcd
#
# Track frame offsets: 
#        182
#        13205
#        24375
#        36145
#        48357
#        60272
#        74135
#        86652
#        98105
#        110607
#        123452
#        135375
#        150727
#        164892
#        175717
#        187347
#        199537
#        212512
#        225315
#        236022
#        249572
#        261735
#        273370
#
# Disc length: 3793 seconds
#
# Revision: 0
# Processed by: cddbd v1.5.2PL0 Copyright (c) Steve Scherf et al.
# Submitted via: ExactAudioCopy v0.99pb5
#
DISCID=4c0ecf17
DTITLE=Various Artist - Texas Country Blues 1948-1951
DYEAR=1994
DGENRE=Blues
TTITLE0=James Tisdom I Feel So Go
TTITLE1=Andrew Thomas Love My Baby
TTITLE2=Rattlesnake Cooper I Treated You Wrong
TTITLE3=Leroy Johnson No One To Love Me
TTITLE4=Willie Lane Black Cat Rag
TTITLE5=James Tisdom '51 Blues
TTITLE6=Monister Parker Black Snake Blues
TTITLE7=Sonny Boy Davis I Don't Live Here No More 
TTITLE8=Cleo Harves Crazy With The Blues
TTITLE9=Frankie Lee Sims Cross Country Blues
TTITLE10=Sunny Jones Excuse Me Baby
TTITLE11=James Tisdom Last Affair 
TTITLE12=Rattlesnake Cooper Rattlesnake Blues 
TTITLE13=Andrew Thomas Chicago Blues
TTITLE14=Mr Honey Who May Your Regular Be
TTITLE15=Willie Lane Prowling Ground Hog 
TTITLE16=Leroy Johnson Log House On The Hill
TTITLE17=James Tisdom Cadillac Blues
TTITLE18=Monister Parker You Gonna Need Me
TTITLE19=Rattlesnake Cooper Lost Woman 
TTITLE20=Sunny Jones Please Man Forgive Me
TTITLE21=Sonny Boy Davis Rythm  Blues 
TTITLE22=James Tisdom Model T Boogie
EXTD=FLYCD 941
EXTT0=
EXTT1=
EXTT2=
EXTT3=
EXTT4=
EXTT5=
EXTT6=
EXTT7=
EXTT8=
EXTT9=
EXTT10=
EXTT11=
EXTT12=
EXTT13=
EXTT14=
EXTT15=
EXTT16=
EXTT17=
EXTT18=
EXTT19=
EXTT20=
EXTT21=
EXTT22=
PLAYORDER=
